HIERARCHY
ROOT Hips
{
	OFFSET -0.001795 -0.223333 0.028219
	CHANNELS 6 Xposition Yposition Zposition Zrotation Yrotation Xrotation 
	JOINT LeftUpLeg
	{
		OFFSET 0.069520 -0.091406 -0.006815
		CHANNELS 3 Zrotation Yrotation Xrotation
		JOINT LeftLeg
		{
			OFFSET 0.034277 -0.375199 -0.004496
			CHANNELS 3 Zrotation Yrotation Xrotation
			JOINT LeftFoot
			{
				OFFSET -0.013596 -0.397961 -0.043693
				CHANNELS 3 Zrotation Yrotation Xrotation
				JOINT LeftToe
				{
					OFFSET 0.026358 -0.055791 0.119288
					CHANNELS 3 Zrotation Yrotation Xrotation
					End Site
					{
						OFFSET 0.000000 0.000000 0.000000
					}
				}
			}
		}
	}
	JOINT RightUpLeg
	{
		OFFSET -0.067670 -0.090522 -0.004320
		CHANNELS 3 Zrotation Yrotation Xrotation
		JOINT RightLeg
		{
			OFFSET -0.038290 -0.382569 -0.008850
			CHANNELS 3 Zrotation Yrotation Xrotation
			JOINT RightFoot
			{
				OFFSET 0.015774 -0.398415 -0.042312
				CHANNELS 3 Zrotation Yrotation Xrotation
				JOINT RightToe
				{
					OFFSET -0.025372 -0.048144 0.123348
					CHANNELS 3 Zrotation Yrotation Xrotation
					End Site
					{
						OFFSET 0.000000 0.000000 0.000000
					}
				}
			}
		}
	}
	JOINT Spine
	{
		OFFSET -0.002533 0.108963 -0.026696
		CHANNELS 3 Zrotation Yrotation Xrotation
		JOINT Spine1
		{
			OFFSET 0.005487 0.135180 0.001092
			CHANNELS 3 Zrotation Yrotation Xrotation
			JOINT Spine2
			{
				OFFSET 0.001457 0.052922 0.025425
				CHANNELS 3 Zrotation Yrotation Xrotation
				JOINT Neck
				{
					OFFSET -0.002778 0.213870 -0.042857
					CHANNELS 3 Zrotation Yrotation Xrotation
					JOINT Head
					{
						OFFSET 0.005152 0.064970 0.051349
						CHANNELS 3 Zrotation Yrotation Xrotation
						End Site
						{
							OFFSET 0.000000 0.000000 0.000000
						}
					}
				}
				JOINT LeftShoulder
				{
					OFFSET 0.078845 0.121749 -0.034090
					CHANNELS 3 Zrotation Yrotation Xrotation
					JOINT LeftArm
					{
						OFFSET 0.090977 0.030469 -0.008868
						CHANNELS 3 Zrotation Yrotation Xrotation
						JOINT LeftForeArm
						{
							OFFSET 0.259612 -0.012772 -0.027456
							CHANNELS 3 Zrotation Yrotation Xrotation
							JOINT LeftHand
							{
								OFFSET 0.249234 0.008986 -0.001171
								CHANNELS 3 Zrotation Yrotation Xrotation
								End Site
								{
									OFFSET 0.000000 0.000000 0.000000
								}
							}
						}
					}
				}
				JOINT RightShoulder
				{
					OFFSET -0.081759 0.118833 -0.038615
					CHANNELS 3 Zrotation Yrotation Xrotation
					JOINT RightArm
					{
						OFFSET -0.096012 0.032551 -0.009143
						CHANNELS 3 Zrotation Yrotation Xrotation
						JOINT RightForeArm
						{
							OFFSET -0.253742 -0.013329 -0.021401
							CHANNELS 3 Zrotation Yrotation Xrotation
							JOINT RightHand
							{
								OFFSET -0.255298 0.007772 -0.005559
								CHANNELS 3 Zrotation Yrotation Xrotation
								End Site
								{
									OFFSET 0.000000 0.000000 0.000000
								}
							}
						}
					}
				}
			}
		}
	}
}
MOTION
Frames: 13
Frame Time: 0.050000
0.285138 0.900750 -0.859184 11.695418 17.660838 10.900919 7.525430 -0.751560 -7.383076 -12.486169 1.433918 21.757159 11.471668 22.774749 10.181718 0.000000 0.000000 0.000000 -11.397449 -1.736138 -31.608022 1.245269 -1.788477 37.878212 -7.107113 -18.435353 -8.021419 0.000000 0.000000 0.000000 8.237931 -3.200835 18.758835 -4.123430 1.910335 -3.101154 -0.230080 -1.027767 8.134907 0.944410 2.068451 -24.497060 0.000000 0.000000 0.000000 -18.286128 -9.313499 1.267410 -18.246552 -12.034055 -0.495290 21.128887 -25.203850 -4.178361 0.000000 0.000000 0.000000 3.958645 2.335614 1.026700 7.760334 8.913319 -0.936501 -25.850707 10.458879 -0.990390 0.000000 0.000000 0.000000 
0.278701 0.911286 -0.853886 11.906603 22.382315 11.052102 6.348715 -0.748238 -6.994427 -12.021194 0.924591 21.055468 10.639076 21.599556 10.772175 0.000000 0.000000 0.000000 -11.142410 -1.815831 -27.828139 2.116133 -2.409282 32.868993 -8.028579 -21.125646 -5.807464 0.000000 0.000000 0.000000 7.967716 -3.133806 17.849019 -4.943628 2.243762 -3.092621 0.491804 -0.872086 7.818357 -0.475061 2.909832 -22.020164 0.000000 0.000000 0.000000 -19.954043 -10.785868 1.067781 -16.289444 -10.326700 -0.432020 21.681599 -22.637825 -3.981274 0.000000 0.000000 0.000000 2.892465 0.685757 0.409316 8.952960 7.270044 -1.066157 -25.340224 10.982121 -0.873352 0.000000 0.000000 0.000000 
0.274093 0.918279 -0.850860 11.476267 26.116937 11.265497 5.947992 -0.711257 -5.872195 -12.224910 0.727502 18.042088 10.133706 20.855732 11.187733 0.000000 0.000000 0.000000 -10.267819 -1.714319 -25.819498 2.774981 -2.910824 30.498819 -8.362377 -21.845352 -4.098537 0.000000 0.000000 0.000000 8.138543 -3.104377 16.868623 -4.831236 2.183259 -2.977226 0.097114 -0.685103 7.056662 -0.029758 2.732133 -19.697730 0.000000 0.000000 0.000000 -20.579164 -10.304137 -0.013884 -15.398350 -9.251982 -0.340241 21.496051 -23.464275 -4.204458 0.000000 0.000000 0.000000 2.937050 -0.588145 -0.049419 8.966547 6.953342 -1.098927 -25.535381 13.027885 -1.096574 0.000000 0.000000 0.000000 
0.270393 0.920426 -0.850028 11.943890 30.354611 11.734970 4.733782 -0.667099 -5.827503 -10.757099 0.292071 15.801996 9.454296 19.507442 9.401359 0.000000 0.000000 0.000000 -10.032435 -1.966228 -24.806330 3.159981 -3.601020 30.111653 -8.785045 -23.186194 -4.111930 0.000000 0.000000 0.000000 8.274007 -3.117045 16.164557 -5.001662 2.207683 -2.556849 -0.670217 -0.374915 6.301846 0.159442 2.717956 -17.759561 0.000000 0.000000 0.000000 -20.557055 -10.367427 -0.857644 -14.746828 -8.553495 -0.211343 20.604496 -24.153728 -4.263421 0.000000 0.000000 0.000000 3.111783 -1.136893 -0.181453 9.700504 5.859863 -1.202570 -26.436350 14.265352 -1.166435 0.000000 0.000000 0.000000 
0.266162 0.919929 -0.851323 12.657582 34.717364 11.978781 3.886529 -0.648201 -6.099092 -8.890343 -0.140153 15.298608 7.588087 16.416434 7.690297 0.000000 0.000000 0.000000 -10.089226 -2.367146 -24.172994 3.267006 -4.425393 30.906716 -8.240945 -22.200628 -4.897462 0.000000 0.000000 0.000000 8.162598 -3.260320 16.402892 -4.934167 2.159665 -2.598922 -1.389380 0.235415 6.173445 0.364630 2.744678 -16.317856 0.000000 0.000000 0.000000 -21.729014 -10.984336 -1.842913 -13.817868 -8.151613 -0.037219 20.405585 -25.761454 -4.626660 0.000000 0.000000 0.000000 3.971447 -1.954682 -0.336301 10.417858 5.821870 -1.323951 -27.219870 15.953999 -1.293501 0.000000 0.000000 0.000000 
0.260147 0.921654 -0.854846 13.543226 38.694331 12.902194 3.156916 -0.631842 -6.335934 -7.048287 -0.360701 13.131148 6.552989 15.513706 9.260271 0.000000 0.000000 0.000000 -10.947374 -3.058871 -23.852124 3.890231 -5.449920 31.390110 -8.057880 -21.500923 -4.330699 0.000000 0.000000 0.000000 7.941342 -3.154094 15.702288 -5.629360 2.229344 -0.875715 -1.741962 0.436368 5.486965 0.229650 2.939442 -15.769029 0.000000 0.000000 0.000000 -21.664794 -10.265386 -2.889850 -13.912450 -7.198182 -0.006015 19.957944 -28.346118 -5.110366 0.000000 0.000000 0.000000 5.235940 -1.668922 0.055116 10.432338 6.675895 -1.331946 -26.828416 17.507457 -1.458615 0.000000 0.000000 0.000000 
0.251960 0.922508 -0.860276 14.204766 43.464786 14.690912 3.823737 -0.860259 -8.436399 -6.498019 -0.618771 13.531948 4.405696 11.712443 7.142227 0.000000 0.000000 0.000000 -10.337069 -3.438339 -24.207644 3.322607 -5.880514 31.311308 -8.599946 -22.508112 -3.281519 0.000000 0.000000 0.000000 8.469676 -3.255364 14.898555 -6.257624 2.347119 -0.916521 -1.805209 1.008400 5.951970 -0.279330 3.488016 -15.504122 0.000000 0.000000 0.000000 -24.912073 -9.489887 -5.480584 -10.824017 -5.498063 0.021232 20.944257 -33.352986 -6.268484 0.000000 0.000000 0.000000 4.521340 -0.821043 0.525086 12.089369 5.761747 -1.521225 -28.589997 19.772375 -1.717997 0.000000 0.000000 0.000000 
0.242888 0.924884 -0.866905 15.420277 47.644030 15.776622 5.416047 -0.973610 -7.967522 -9.270189 -0.520730 12.215159 5.379507 12.917763 7.406270 0.000000 0.000000 0.000000 -10.313752 -3.948722 -24.181857 3.119550 -6.764554 32.304084 -8.260480 -21.979284 -3.929639 0.000000 0.000000 0.000000 7.797909 -3.150975 14.761094 -6.480007 2.220100 0.025553 -2.579244 3.995958 6.100601 1.079104 3.453229 -17.193649 0.000000 0.000000 0.000000 -24.470458 -11.596067 -6.313749 -10.434156 -4.230831 0.195983 25.109623 -35.570725 -8.491007 0.000000 0.000000 0.000000 5.549772 -2.613320 0.214970 12.080778 5.720373 -1.646959 -30.543775 22.530759 -1.954309 0.000000 0.000000 0.000000 
0.233651 0.924986 -0.874478 17.266597 53.161395 16.990625 7.990964 -1.321570 -7.791558 -12.954040 -0.773818 12.081190 10.472890 20.099714 12.238401 0.000000 0.000000 0.000000 -10.821669 -4.342088 -21.720476 4.687893 -7.472006 28.829769 -9.661203 -25.552606 -3.074481 0.000000 0.000000 0.000000 6.191263 -3.339486 16.543264 -5.856843 1.962653 -0.807078 -3.577018 5.947771 6.112148 3.762980 2.514837 -17.332292 0.000000 0.000000 0.000000 -23.418198 -11.561754 -7.959353 -9.278594 -4.074074 0.306572 28.157408 -38.261330 -10.672443 0.000000 0.000000 0.000000 8.422970 -2.873512 1.357008 11.870370 4.310870 -1.897649 -35.663128 24.744094 -2.587443 0.000000 0.000000 0.000000 
0.225326 0.925147 -0.883163 17.843878 58.138683 17.694140 9.731737 -1.710517 -8.613640 -14.277270 -1.140085 12.163585 17.488366 26.784292 19.427375 0.000000 0.000000 0.000000 -11.001082 -4.431496 -19.118519 6.796114 -7.770977 24.189713 -11.640922 -29.514462 -0.804118 0.000000 0.000000 0.000000 5.042903 -3.057031 16.158145 -6.374989 1.861800 -0.175739 -2.937075 7.461362 7.027854 5.932712 1.573886 -16.650468 0.000000 0.000000 0.000000 -21.731391 -12.250352 -8.365577 -8.512863 -4.388560 0.355904 31.693674 -39.932200 -13.053872 0.000000 0.000000 0.000000 9.789191 -1.514185 3.142054 13.793324 5.720441 -2.206384 -43.714925 25.013306 -3.010043 0.000000 0.000000 0.000000 
0.219087 0.926136 -0.893370 14.917271 62.192961 16.611849 11.796708 -2.210737 -9.415394 -14.035806 -1.301936 10.881573 19.975773 28.185098 25.482451 0.000000 0.000000 0.000000 -9.798587 -4.324162 -19.206348 8.901886 -8.288330 21.171153 -14.006116 -32.471580 2.762857 0.000000 0.000000 0.000000 4.918337 -2.678992 14.534216 -7.509648 1.717154 1.439409 -1.225695 10.009693 7.211520 7.070361 1.630624 -17.799434 0.000000 0.000000 0.000000 -20.264031 -11.985745 -9.080906 -9.464186 -3.824162 0.433508 40.281952 -42.526032 -18.557998 0.000000 0.000000 0.000000 12.565965 -1.916244 4.567233 14.481153 9.615860 -2.265374 -53.497058 26.244152 -4.028986 0.000000 0.000000 0.000000 
0.216172 0.924759 -0.905224 13.901820 66.691005 16.145232 12.113293 -2.414646 -9.171094 -12.049724 -1.351093 9.727644 23.412049 28.804109 29.780307 0.000000 0.000000 0.000000 -9.244028 -4.240763 -17.886655 9.767666 -8.264218 18.272022 -16.100917 -35.405759 5.188004 0.000000 0.000000 0.000000 4.015195 -2.345059 13.681559 -6.927621 1.260974 1.579793 -0.632730 11.782091 7.995033 8.566786 1.473940 -18.561827 0.000000 0.000000 0.000000 -19.119685 -12.106943 -9.928372 -9.770312 -3.585640 0.505799 48.999384 -45.689224 -25.115141 0.000000 0.000000 0.000000 14.052965 -0.746858 6.768876 13.834979 14.115790 -2.070096 -63.958714 25.172137 -4.305292 0.000000 0.000000 0.000000 
0.216953 0.924007 -0.918699 11.949374 70.504153 13.827031 12.586013 -2.626366 -9.050322 -10.739729 -1.370170 8.697007 25.373543 28.517369 31.599182 0.000000 0.000000 0.000000 -8.519089 -4.042208 -16.644253 10.363882 -8.735500 17.175768 -18.127276 -37.846509 7.689683 0.000000 0.000000 0.000000 3.420753 -2.365446 14.040412 -7.096492 1.210580 1.148618 -0.118118 14.234331 7.688459 10.389932 1.111570 -19.364941 0.000000 0.000000 0.000000 -17.445292 -12.238261 -10.305741 -10.650375 -4.423994 0.659683 60.133922 -48.791082 -34.455187 0.000000 0.000000 0.000000 13.437540 0.374552 8.014057 13.935308 19.089286 -1.587273 -74.298143 25.938202 -5.039429 0.000000 0.000000 0.000000 
